<svg width="128" height="128" viewBox="0 0 128 128" fill="none" xmlns="http://www.w3.org/2000/svg">
<g filter="url(#filter0_d_21_1968)">
<path fill-rule="evenodd" clip-rule="evenodd" d="M26 22C26 17.5817 29.5817 14 34 14H82L98 30V94C98 98.4183 94.4183 102 90 102H34C29.5817 102 26 98.4183 26 94V22Z" fill="white"/>
<path d="M34 14.5H81.793L97.5 30.207V94C97.5 98.1421 94.1421 101.5 90 101.5H34C29.8579 101.5 26.5 98.1421 26.5 94V22C26.5 17.8579 29.8579 14.5 34 14.5Z" stroke="#C5C9CA"/>
</g>
<g filter="url(#filter1_d_21_1968)">
<path d="M82 25.5V26.5C82 28.1569 83.3431 29.5 85 29.5H97.5" stroke="#B6BBBB" stroke-opacity="0.01" stroke-linecap="square" stroke-linejoin="round" shape-rendering="crispEdges"/>
</g>
<path d="M82 15V27C82 28.6569 83.3431 30 85 30H97" stroke="#C5C9CA" stroke-linecap="square" stroke-linejoin="round"/>
<rect x="38" y="76" width="48" height="2" rx="1" fill="#DFE1E1"/>
<rect x="38" y="82" width="48" height="2" rx="1" fill="#DFE1E1"/>
<rect x="38" y="88" width="32" height="2" rx="1" fill="#DFE1E1"/>
<rect x="38" y="58" width="48" height="2" rx="1" fill="#DFE1E1"/>
<rect x="38" y="64" width="48" height="2" rx="1" fill="#DFE1E1"/>
<rect x="38" y="70" width="48" height="2" rx="1" fill="#DFE1E1"/>
<rect x="38" y="46" width="48" height="2" rx="1" fill="#DFE1E1"/>
<rect x="38" y="40" width="48" height="2" rx="1" fill="#DFE1E1"/>
<rect x="38" y="52" width="48" height="2" rx="1" fill="#DFE1E1"/>
<rect x="38" y="26" width="24" height="2" rx="1" fill="#C5C9CA"/>
<foreignObject x="36" y="64" width="56" height="56"><div xmlns="http://www.w3.org/1999/xhtml" style="backdrop-filter:blur(2px);clip-path:url(#bgblur_0_21_1968_clip_path);height:100%;width:100%"></div></foreignObject><g filter="url(#filter2_dd_21_1968)" data-figma-bg-blur-radius="4">
<circle cx="64" cy="90" r="24" fill="#FFF4E6"/>
<circle cx="64" cy="90" r="23.5" stroke="#FF9100" stroke-dasharray="2 2"/>
</g>
<path d="M64 82C64.5523 82 65 82.4477 65 83V89H71C71.5523 89 72 89.4477 72 90C72 90.5523 71.5523 91 71 91H65V97C65 97.5523 64.5523 98 64 98C63.4477 98 63 97.5523 63 97V91H57C56.4477 91 56 90.5523 56 90C56 89.4477 56.4477 89 57 89H63V83C63 82.4477 63.4477 82 64 82Z" fill="#FF9100"/>
<defs>
<filter id="filter0_d_21_1968" x="24" y="13" width="76" height="92" filterUnits="userSpaceOnUse" color-interpolation-filters="sRGB">
<feFlood flood-opacity="0" result="BackgroundImageFix"/>
<feColorMatrix in="SourceAlpha" type="matrix" values="0 0 0 0 0 0 0 0 0 0 0 0 0 0 0 0 0 0 127 0" result="hardAlpha"/>
<feOffset dy="1"/>
<feGaussianBlur stdDeviation="1"/>
<feComposite in2="hardAlpha" operator="out"/>
<feColorMatrix type="matrix" values="0 0 0 0 0 0 0 0 0 0 0 0 0 0 0 0 0 0 0.08 0"/>
<feBlend mode="normal" in2="BackgroundImageFix" result="effect1_dropShadow_21_1968"/>
<feBlend mode="normal" in="SourceGraphic" in2="effect1_dropShadow_21_1968" result="shape"/>
</filter>
<filter id="filter1_d_21_1968" x="80.5" y="25" width="18.5" height="7" filterUnits="userSpaceOnUse" color-interpolation-filters="sRGB">
<feFlood flood-opacity="0" result="BackgroundImageFix"/>
<feColorMatrix in="SourceAlpha" type="matrix" values="0 0 0 0 0 0 0 0 0 0 0 0 0 0 0 0 0 0 127 0" result="hardAlpha"/>
<feOffset dy="1"/>
<feGaussianBlur stdDeviation="0.5"/>
<feComposite in2="hardAlpha" operator="out"/>
<feColorMatrix type="matrix" values="0 0 0 0 0 0 0 0 0 0 0 0 0 0 0 0 0 0 0.08 0"/>
<feBlend mode="normal" in2="BackgroundImageFix" result="effect1_dropShadow_21_1968"/>
<feBlend mode="normal" in="SourceGraphic" in2="effect1_dropShadow_21_1968" result="shape"/>
</filter>
<filter id="filter2_dd_21_1968" x="36" y="64" width="56" height="56" filterUnits="userSpaceOnUse" color-interpolation-filters="sRGB">
<feFlood flood-opacity="0" result="BackgroundImageFix"/>
<feColorMatrix in="SourceAlpha" type="matrix" values="0 0 0 0 0 0 0 0 0 0 0 0 0 0 0 0 0 0 127 0" result="hardAlpha"/>
<feOffset dy="1"/>
<feGaussianBlur stdDeviation="1"/>
<feComposite in2="hardAlpha" operator="out"/>
<feColorMatrix type="matrix" values="0 0 0 0 0 0 0 0 0 0 0 0 0 0 0 0 0 0 0.04 0"/>
<feBlend mode="normal" in2="BackgroundImageFix" result="effect1_dropShadow_21_1968"/>
<feColorMatrix in="SourceAlpha" type="matrix" values="0 0 0 0 0 0 0 0 0 0 0 0 0 0 0 0 0 0 127 0" result="hardAlpha"/>
<feOffset dy="2"/>
<feGaussianBlur stdDeviation="2"/>
<feComposite in2="hardAlpha" operator="out"/>
<feColorMatrix type="matrix" values="0 0 0 0 0 0 0 0 0 0 0 0 0 0 0 0 0 0 0.04 0"/>
<feBlend mode="normal" in2="effect1_dropShadow_21_1968" result="effect2_dropShadow_21_1968"/>
<feBlend mode="normal" in="SourceGraphic" in2="effect2_dropShadow_21_1968" result="shape"/>
</filter>
<clipPath id="bgblur_0_21_1968_clip_path" transform="translate(-36 -64)"><circle cx="64" cy="90" r="24"/>
</clipPath></defs>
</svg>
