<svg width="24" height="24" viewBox="0 0 24 24" fill="none" xmlns="http://www.w3.org/2000/svg">
<g clip-path="url(#clip0_59_3306)">
<g clip-path="url(#clip1_59_3306)">
<g clip-path="url(#clip2_59_3306)">
<path d="M9 6C9 4.343 10.343 3 12 3C13.657 3 15 4.343 15 6C15 7.657 13.657 9 12 9C10.343 9 9 7.657 9 6Z" fill="#F4B857"/>
<path d="M5.30444 11.5977C3.86944 10.7697 3.37744 8.93475 4.20644 7.49975C5.03444 6.06475 6.86944 5.57275 8.30444 6.40175C9.73944 7.22975 10.2304 9.06475 9.40244 10.4997C8.57444 11.9347 6.73944 12.4267 5.30444 11.5977Z" fill="#6DD9D1"/>
<path d="M8.30444 17.5977C6.86944 18.4267 5.03444 17.9347 4.20644 16.4997C3.37744 15.0647 3.86944 13.2297 5.30444 12.4017C6.73944 11.5727 8.57444 12.0647 9.40244 13.4997C10.2304 14.9347 9.73944 16.7697 8.30444 17.5977Z" fill="#64BCF8"/>
<path d="M9 18C9 16.343 10.343 15 12 15C13.657 15 15 16.343 15 18C15 19.657 13.657 21 12 21C10.343 21 9 19.657 9 18Z" fill="#7A61F4"/>
<path d="M15.6956 17.5977C14.2606 16.7697 13.7696 14.9347 14.5976 13.4997C15.4266 12.0647 17.2606 11.5727 18.6956 12.4017C20.1306 13.2297 20.6226 15.0647 19.7936 16.4997C18.9656 17.9347 17.1306 18.4267 15.6956 17.5977Z" fill="#EC6DB1"/>
<path d="M18.6956 11.5977C17.2606 12.4267 15.4266 11.9347 14.5976 10.4997C13.7696 9.06475 14.2606 7.22975 15.6956 6.40175C17.1306 5.57275 18.9656 6.06475 19.7936 7.49975C20.6226 8.93475 20.1306 10.7697 18.6956 11.5977Z" fill="#ED6A3D"/>
</g>
</g>
<g clip-path="url(#clip3_59_3306)">
<g clip-path="url(#clip4_59_3306)">
<path d="M5.07219 7.99978C4.45419 9.06978 4.71719 10.4098 5.63819 11.1728C6.06319 11.5248 6.12219 12.1558 5.77019 12.5808C5.41819 13.0058 4.78719 13.0648 4.36219 12.7128C2.70319 11.3378 2.22619 8.92878 3.34019 6.99978C4.58219 4.84778 7.33419 4.10978 9.48719 5.35278C11.6392 6.59578 12.3772 9.34778 11.1342 11.4998C10.8612 11.9728 10.5132 12.3798 10.1132 12.7118C9.68819 13.0648 9.05819 13.0068 8.70519 12.5818C8.35219 12.1568 8.41019 11.5268 8.83519 11.1738C9.05619 10.9908 9.24919 10.7658 9.40219 10.4998C10.0922 9.30378 9.68319 7.77478 8.48719 7.08478C7.29119 6.39478 5.76219 6.80378 5.07219 7.99978Z" fill="#30BBB1"/>
<path d="M5.07208 15.9998C5.63108 16.9688 6.74308 17.4228 7.78208 17.1908C8.32108 17.0698 8.85508 17.4098 8.97608 17.9488C9.09608 18.4878 8.75709 19.0218 8.21809 19.1428C6.35009 19.5608 4.34908 18.7468 3.34008 16.9998C2.09708 14.8478 2.83508 12.0958 4.98708 10.8528C7.13908 9.60978 9.89108 10.3478 11.1341 12.4998C11.3711 12.9098 11.5361 13.3438 11.6331 13.7858C11.7521 14.3248 11.4101 14.8578 10.8711 14.9768C10.3321 15.0948 9.79809 14.7538 9.68009 14.2138C9.62609 13.9708 9.53509 13.7298 9.40209 13.4998C8.71209 12.3038 7.18308 11.8948 5.98708 12.5848C4.79108 13.2748 4.38108 14.8038 5.07208 15.9998Z" fill="#32A7F5"/>
<path d="M12 15C10.619 15 9.5 16.119 9.5 17.5C9.5 18.881 10.619 20 12 20C13.131 20 14.089 19.248 14.396 18.215C14.554 17.685 15.111 17.384 15.64 17.541C16.17 17.699 16.471 18.256 16.313 18.785C15.76 20.643 14.04 22 12 22C9.515 22 7.5 19.985 7.5 17.5C7.5 15.015 9.515 13 12 13C12.445 13 12.877 13.065 13.285 13.187C13.815 13.344 14.116 13.901 13.958 14.43C13.801 14.96 13.244 15.261 12.715 15.103C12.489 15.036 12.25 15 12 15Z" fill="#7153F3"/>
<path d="M14.5985 13.5003C13.9075 14.6963 14.3175 16.2253 15.5135 16.9153C16.7095 17.6063 18.2385 17.1963 18.9285 16.0003C19.4675 15.0663 19.3365 13.9263 18.6795 13.1433C18.3245 12.7193 18.3795 12.0893 18.8025 11.7343C19.2255 11.3793 19.8565 11.4343 20.2115 11.8573C21.3915 13.2643 21.6335 15.3153 20.6605 17.0003C19.4175 19.1523 16.6655 19.8903 14.5135 18.6473C12.3615 17.4053 11.6235 14.6523 12.8665 12.5003C13.0605 12.1643 13.2925 11.8613 13.5545 11.5943C13.9415 11.2003 14.5745 11.1943 14.9685 11.5813C15.3625 11.9693 15.3685 12.6023 14.9815 12.9963C14.8365 13.1433 14.7075 13.3113 14.5985 13.5003Z" fill="#E63D97"/>
<path d="M14.5983 10.4995C15.2883 11.6955 16.8173 12.1055 18.0133 11.4145C19.2093 10.7245 19.6183 9.19554 18.9283 7.99954C18.3693 7.03054 17.2573 6.57654 16.2183 6.80854C15.6793 6.92954 15.1453 6.59054 15.0243 6.05154C14.9043 5.51254 15.2433 4.97754 15.7823 4.85654C17.6503 4.43954 19.6513 5.25254 20.6603 6.99954C21.9033 9.15154 21.1653 11.9045 19.0133 13.1465C16.8613 14.3895 14.1093 13.6515 12.8663 11.4995C12.6873 11.1885 12.5483 10.8645 12.4493 10.5335C12.2913 10.0035 12.5923 9.44654 13.1223 9.28954C13.6513 9.13154 14.2083 9.43254 14.3663 9.96154C14.4203 10.1445 14.4973 10.3255 14.5983 10.4995Z" fill="#E04B15"/>
<path d="M12.0005 4C11.4345 4 10.9125 4.188 10.4935 4.505C10.2835 4.664 10.0995 4.855 9.94845 5.07C9.87345 5.178 9.80645 5.292 9.74845 5.412C9.69045 5.531 7.76045 4.984 7.80445 4.872C7.84745 4.76 7.89545 4.651 7.94745 4.543C8.05145 4.328 8.17145 4.123 8.30745 3.929C8.57845 3.54 8.90845 3.196 9.28645 2.911C10.0405 2.339 10.9805 2 12.0005 2C14.4855 2 16.5005 4.015 16.5005 6.5C16.5005 8.985 14.4855 11 12.0005 11C11.8655 11 11.7165 10.987 11.5755 10.97C11.4335 10.952 11.7415 8.975 11.8205 8.985C11.8985 8.995 11.9615 9 12.0005 9C13.3815 9 14.5005 7.881 14.5005 6.5C14.5005 5.119 13.3815 4 12.0005 4Z" fill="#F0A428"/>
</g>
</g>
</g>
<defs>
<clipPath id="clip0_59_3306">
<rect width="24" height="24" fill="white"/>
</clipPath>
<clipPath id="clip1_59_3306">
<rect width="24" height="24" fill="white"/>
</clipPath>
<clipPath id="clip2_59_3306">
<rect width="24" height="24" fill="white"/>
</clipPath>
<clipPath id="clip3_59_3306">
<rect width="24" height="24" fill="white"/>
</clipPath>
<clipPath id="clip4_59_3306">
<rect width="24" height="24" fill="white"/>
</clipPath>
</defs>
</svg>
