<svg width="1872" height="945" viewBox="0 0 1872 945" fill="none" xmlns="http://www.w3.org/2000/svg">
<rect width="1872" height="945" fill="#F8F8F8"/>
<rect x="576" y="585" width="200" height="200" rx="100" fill="#FFDECF"/>
<rect x="576.5" y="585.5" width="199" height="199" rx="99.5" stroke="#F97316" stroke-opacity="0.05"/>
<path d="M633.732 665.252C632.976 669.62 630.148 672.448 625.5 672.448C619.704 672.448 616.288 667.884 616.288 662.088C616.288 656.264 619.704 651.672 625.5 651.672C629.84 651.672 632.724 654.332 633.592 658.476L630.372 658.644C629.784 655.984 628.02 654.472 625.472 654.472C621.272 654.472 619.48 657.972 619.48 662.088C619.48 666.176 621.3 669.648 625.472 669.648C628.16 669.648 629.952 667.996 630.484 665.084L633.732 665.252ZM636.39 661.612C636.978 658.616 639.33 656.824 642.746 656.824C646.806 656.824 649.018 659.064 649.018 663.124V668.64C649.018 669.368 649.326 669.62 649.914 669.62H650.53V672H649.578C648.234 672.028 646.386 671.804 646.246 669.732C645.602 671.132 643.95 672.336 641.486 672.336C638.518 672.336 636.138 670.74 636.138 668.108C636.138 665.14 638.35 664.272 641.766 663.6L645.994 662.788C645.966 660.408 644.902 659.288 642.746 659.288C641.038 659.288 639.918 660.156 639.498 661.808L636.39 661.612ZM639.274 668.052C639.274 669.116 640.198 670.012 642.13 670.012C644.342 670.012 646.05 668.416 646.05 665.224V665.084L642.914 665.644C640.898 666.008 639.274 666.176 639.274 668.052ZM653.522 652.12H656.546V668.556C656.546 669.2 656.854 669.536 657.526 669.536H658.73V672H656.854C654.866 672 653.522 670.712 653.522 668.668V652.12ZM660.775 664.58C660.775 659.848 663.575 656.824 667.859 656.824C671.387 656.824 674.411 659.176 674.579 664.468V665.448H663.967C664.135 668.164 665.535 669.76 667.859 669.76C669.315 669.76 670.631 668.92 671.247 667.52L674.383 667.744C673.487 670.572 670.883 672.336 667.859 672.336C663.575 672.336 660.775 669.312 660.775 664.58ZM663.995 663.18H671.415C671.051 660.38 669.511 659.4 667.859 659.4C665.703 659.4 664.331 660.8 663.995 663.18ZM677.776 657.16H680.492L680.576 659.708C681.36 657.692 683.068 656.824 685.084 656.824C688.444 656.824 690.152 659.204 690.152 662.452V672H687.128V663.376C687.128 660.772 686.344 659.372 684.3 659.372C682.144 659.372 680.8 660.772 680.8 663.376V672H677.776V657.16ZM706.871 652.12V672H704.071L703.987 669.9C703.147 671.412 701.411 672.336 699.367 672.336C695.503 672.336 693.095 669.34 693.095 664.58C693.095 659.82 695.503 656.824 699.367 656.824C701.327 656.824 703.007 657.692 703.847 659.12V652.12H706.871ZM696.203 664.58C696.203 667.744 697.771 669.732 700.151 669.732C702.559 669.732 704.071 667.744 704.071 664.58C704.071 661.36 702.559 659.344 700.151 659.344C697.743 659.344 696.203 661.36 696.203 664.58ZM710.464 661.612C711.052 658.616 713.404 656.824 716.82 656.824C720.88 656.824 723.092 659.064 723.092 663.124V668.64C723.092 669.368 723.4 669.62 723.988 669.62H724.604V672H723.652C722.308 672.028 720.46 671.804 720.32 669.732C719.676 671.132 718.024 672.336 715.56 672.336C712.592 672.336 710.212 670.74 710.212 668.108C710.212 665.14 712.424 664.272 715.84 663.6L720.068 662.788C720.04 660.408 718.976 659.288 716.82 659.288C715.112 659.288 713.992 660.156 713.572 661.808L710.464 661.612ZM713.348 668.052C713.348 669.116 714.272 670.012 716.204 670.012C718.416 670.012 720.124 668.416 720.124 665.224V665.084L716.988 665.644C714.972 666.008 713.348 666.176 713.348 668.052ZM727.405 657.16H730.177L730.261 659.904C730.765 658.028 731.885 657.16 733.789 657.16H735.189V659.624H733.761C731.437 659.624 730.429 660.884 730.429 663.348V672H727.405V657.16Z" fill="#F97316"/>
<path d="M618.28 706.4V695.52H619.528L619.576 696.752C620.04 695.84 620.936 695.328 622.168 695.328C624.712 695.328 625.832 697.44 625.832 699.76C625.832 702.08 624.712 704.192 622.168 704.192C621 704.192 620.12 703.744 619.656 702.864V706.4H618.28ZM619.496 699.76C619.496 701.328 620.2 702.88 621.928 702.88C623.672 702.88 624.36 701.344 624.36 699.76C624.36 698.176 623.672 696.64 621.928 696.64C620.2 696.64 619.496 698.192 619.496 699.76ZM627.858 692.64H629.234V702.272C629.234 702.624 629.394 702.784 629.746 702.784H630.482V704H629.522C628.53 704 627.858 703.328 627.858 702.336V692.64ZM632.021 698.016C632.357 696.368 633.685 695.328 635.493 695.328C637.685 695.328 638.917 696.608 638.917 698.88V702.272C638.917 702.624 639.077 702.784 639.429 702.784H639.781V704H639.189C638.325 704 637.557 703.728 637.557 702.704C637.205 703.472 636.277 704.192 634.933 704.192C633.253 704.192 631.877 703.296 631.877 701.776C631.877 700.016 633.189 699.584 635.077 699.216L637.541 698.736C637.525 697.328 636.853 696.64 635.493 696.64C634.437 696.64 633.733 697.168 633.477 698.128L632.021 698.016ZM633.317 701.776C633.317 702.432 633.877 702.976 635.109 702.976C636.485 702.976 637.573 702.016 637.573 700.032V699.952L635.589 700.304C634.341 700.528 633.317 700.592 633.317 701.776ZM641.499 695.52H642.747L642.795 696.976C643.227 695.84 644.219 695.328 645.387 695.328C647.323 695.328 648.251 696.752 648.251 698.544V704H646.875V698.928C646.875 697.376 646.363 696.544 645.099 696.544C643.755 696.544 642.875 697.376 642.875 698.928V704H641.499V695.52ZM658.155 692.384C659.707 692.528 660.987 694 660.427 695.648C660.139 696.48 659.435 697.328 658.331 698.016L660.923 701.312C661.307 700.8 661.451 699.76 661.387 698.88L662.827 699.008C662.827 700.288 662.411 701.6 661.787 702.352L663.163 704H661.499L660.923 703.296C660.299 703.872 659.307 704.192 658.203 704.192C655.803 704.192 654.171 703.072 654.171 700.992C654.171 699.648 654.747 698.848 656.171 697.856L656.379 697.712C655.643 696.736 655.339 695.824 655.339 695.024C655.339 693.344 656.715 692.256 658.155 692.384ZM655.595 700.992C655.595 702.176 656.603 702.912 658.203 702.912C658.971 702.912 659.659 702.672 659.979 702.272L657.243 698.784C656.539 699.248 655.595 699.936 655.595 700.992ZM656.731 695.072C656.731 695.568 656.955 696.192 657.515 696.96C658.539 696.496 659.179 695.76 659.179 695.072C659.179 694.336 658.763 693.808 658.075 693.76C657.307 693.712 656.715 694.336 656.731 695.072ZM673.628 698.144C673.436 697.2 672.492 696.64 671.564 696.64C670.636 696.64 669.884 697.104 669.884 697.904C669.884 698.736 670.988 699.072 671.884 699.248C673.804 699.616 675.228 700.144 675.228 701.84C675.228 703.488 673.516 704.192 671.916 704.192C669.9 704.192 668.364 703.088 668.236 701.328L669.676 701.232C669.852 702.24 670.652 702.88 671.916 702.88C672.716 702.88 673.788 702.624 673.788 701.76C673.788 700.752 672.604 700.656 671.644 700.432C670.108 700.08 668.444 699.648 668.444 697.984C668.444 696.352 669.756 695.328 671.708 695.328C673.404 695.328 674.796 696.4 675.068 698.048L673.628 698.144ZM682.72 698.368C682.544 697.28 681.632 696.64 680.624 696.64C679.072 696.64 678.176 697.808 678.176 699.76C678.176 701.712 679.072 702.88 680.624 702.88C681.68 702.88 682.592 702.192 682.784 700.992L684.24 701.088C683.968 703.008 682.416 704.192 680.624 704.192C678.272 704.192 676.736 702.464 676.736 699.76C676.736 697.056 678.272 695.328 680.624 695.328C682.352 695.328 683.936 696.448 684.16 698.272L682.72 698.368ZM686.03 692.64H687.406V696.64C687.902 695.744 688.894 695.328 689.918 695.328C691.854 695.328 692.782 696.752 692.782 698.544V704H691.406V699.024C691.406 697.472 690.894 696.64 689.63 696.64C688.286 696.64 687.406 697.472 687.406 699.024V704H686.03V692.64ZM694.58 699.76C694.58 697.056 696.116 695.328 698.468 695.328C700.324 695.328 702.004 696.528 702.148 699.568L702.164 700.192H696.036C696.164 701.888 697.028 702.88 698.468 702.88C699.364 702.88 700.18 702.368 700.564 701.488L702.036 701.6C701.54 703.2 700.1 704.192 698.468 704.192C696.116 704.192 694.58 702.464 694.58 699.76ZM696.068 698.976H700.66C700.42 697.216 699.476 696.64 698.468 696.64C697.14 696.64 696.292 697.504 696.068 698.976ZM711.226 692.64V704H709.978L709.93 702.816C709.466 703.664 708.442 704.192 707.258 704.192C705.05 704.192 703.674 702.48 703.674 699.76C703.674 697.04 705.05 695.328 707.258 695.328C708.394 695.328 709.386 695.824 709.85 696.608V692.64H711.226ZM705.114 699.76C705.114 701.68 706.058 702.88 707.546 702.88C709.034 702.88 709.978 701.68 709.978 699.76C709.978 697.808 709.034 696.576 707.546 696.576C706.058 696.576 705.114 697.808 705.114 699.76ZM720.124 704H718.812V702.608C718.364 703.696 717.388 704.192 716.284 704.192C714.396 704.192 713.468 702.768 713.468 700.976V695.52H714.844V700.576C714.844 702.144 715.356 702.976 716.572 702.976C717.868 702.976 718.748 702.144 718.748 700.576V695.52H720.124V704ZM722.686 692.64H724.062V702.272C724.062 702.624 724.222 702.784 724.574 702.784H725.31V704H724.35C723.358 704 722.686 703.328 722.686 702.336V692.64ZM726.549 699.76C726.549 697.056 728.085 695.328 730.437 695.328C732.293 695.328 733.973 696.528 734.117 699.568L734.133 700.192H728.005C728.133 701.888 728.997 702.88 730.437 702.88C731.333 702.88 732.149 702.368 732.533 701.488L734.005 701.6C733.509 703.2 732.069 704.192 730.437 704.192C728.085 704.192 726.549 702.464 726.549 699.76ZM728.037 698.976H732.629C732.389 697.216 731.445 696.64 730.437 696.64C729.109 696.64 728.261 697.504 728.037 698.976Z" fill="#F97316"/>
<rect x="1096" y="585" width="200" height="200" rx="100" fill="#FFDECF"/>
<rect x="1096.5" y="585.5" width="199" height="199" rx="99.5" stroke="#F97316" stroke-opacity="0.05"/>
<path d="M1164.73 665.252C1163.98 669.62 1161.15 672.448 1156.5 672.448C1150.7 672.448 1147.29 667.884 1147.29 662.088C1147.29 656.264 1150.7 651.672 1156.5 651.672C1160.84 651.672 1163.72 654.332 1164.59 658.476L1161.37 658.644C1160.78 655.984 1159.02 654.472 1156.47 654.472C1152.27 654.472 1150.48 657.972 1150.48 662.088C1150.48 666.176 1152.3 669.648 1156.47 669.648C1159.16 669.648 1160.95 667.996 1161.48 665.084L1164.73 665.252ZM1167.39 661.612C1167.98 658.616 1170.33 656.824 1173.75 656.824C1177.81 656.824 1180.02 659.064 1180.02 663.124V668.64C1180.02 669.368 1180.33 669.62 1180.91 669.62H1181.53V672H1180.58C1179.23 672.028 1177.39 671.804 1177.25 669.732C1176.6 671.132 1174.95 672.336 1172.49 672.336C1169.52 672.336 1167.14 670.74 1167.14 668.108C1167.14 665.14 1169.35 664.272 1172.77 663.6L1176.99 662.788C1176.97 660.408 1175.9 659.288 1173.75 659.288C1172.04 659.288 1170.92 660.156 1170.5 661.808L1167.39 661.612ZM1170.27 668.052C1170.27 669.116 1171.2 670.012 1173.13 670.012C1175.34 670.012 1177.05 668.416 1177.05 665.224V665.084L1173.91 665.644C1171.9 666.008 1170.27 666.176 1170.27 668.052ZM1184.33 657.16H1187.05L1187.13 659.708C1187.91 657.692 1189.62 656.824 1191.64 656.824C1195 656.824 1196.71 659.204 1196.71 662.452V672H1193.68V663.376C1193.68 660.772 1192.9 659.372 1190.85 659.372C1188.7 659.372 1187.35 660.772 1187.35 663.376V672H1184.33V657.16ZM1213.37 657.16L1207.94 672H1204.3L1198.87 657.16H1202.03L1206.12 668.92L1210.21 657.16H1213.37ZM1214.91 661.612C1215.5 658.616 1217.85 656.824 1221.27 656.824C1225.33 656.824 1227.54 659.064 1227.54 663.124V668.64C1227.54 669.368 1227.85 669.62 1228.44 669.62H1229.05V672H1228.1C1226.76 672.028 1224.91 671.804 1224.77 669.732C1224.13 671.132 1222.47 672.336 1220.01 672.336C1217.04 672.336 1214.66 670.74 1214.66 668.108C1214.66 665.14 1216.87 664.272 1220.29 663.6L1224.52 662.788C1224.49 660.408 1223.43 659.288 1221.27 659.288C1219.56 659.288 1218.44 660.156 1218.02 661.808L1214.91 661.612ZM1217.8 668.052C1217.8 669.116 1218.72 670.012 1220.65 670.012C1222.87 670.012 1224.57 668.416 1224.57 665.224V665.084L1221.44 665.644C1219.42 666.008 1217.8 666.176 1217.8 668.052ZM1240.42 661.836C1240.12 660.268 1238.63 659.344 1237.12 659.344C1235.61 659.344 1234.4 660.1 1234.43 661.388C1234.46 662.732 1236.17 663.264 1237.68 663.544C1241.38 664.216 1243.76 665.224 1243.76 668.136C1243.76 671.048 1240.82 672.336 1237.68 672.336C1233.87 672.336 1231.16 670.432 1230.93 667.324L1234.04 667.128C1234.32 668.78 1235.61 669.816 1237.65 669.816C1238.94 669.816 1240.62 669.368 1240.62 667.996C1240.62 666.4 1238.74 666.232 1237.15 665.868C1234.01 665.196 1231.3 664.356 1231.3 661.5C1231.3 658.588 1233.65 656.824 1237.34 656.824C1240.56 656.824 1243.03 658.7 1243.53 661.668L1240.42 661.836Z" fill="#F97316"/>
<path d="M1137.75 699.76C1137.75 697.056 1139.29 695.328 1141.64 695.328C1143.5 695.328 1145.18 696.528 1145.32 699.568L1145.34 700.192H1139.21C1139.34 701.888 1140.2 702.88 1141.64 702.88C1142.54 702.88 1143.35 702.368 1143.74 701.488L1145.21 701.6C1144.71 703.2 1143.27 704.192 1141.64 704.192C1139.29 704.192 1137.75 702.464 1137.75 699.76ZM1139.24 698.976H1143.83C1143.59 697.216 1142.65 696.64 1141.64 696.64C1140.31 696.64 1139.46 697.504 1139.24 698.976ZM1152.1 695.52H1153.79L1150.86 699.664L1153.94 704H1152.26L1150 700.72L1147.73 704H1146.05L1149.15 699.648L1146.21 695.52H1147.89L1150 698.592L1152.1 695.52ZM1155.97 706.4V695.52H1157.22L1157.26 696.752C1157.73 695.84 1158.62 695.328 1159.86 695.328C1162.4 695.328 1163.52 697.44 1163.52 699.76C1163.52 702.08 1162.4 704.192 1159.86 704.192C1158.69 704.192 1157.81 703.744 1157.34 702.864V706.4H1155.97ZM1157.18 699.76C1157.18 701.328 1157.89 702.88 1159.62 702.88C1161.36 702.88 1162.05 701.344 1162.05 699.76C1162.05 698.176 1161.36 696.64 1159.62 696.64C1157.89 696.64 1157.18 698.192 1157.18 699.76ZM1165.55 692.64H1166.92V702.272C1166.92 702.624 1167.08 702.784 1167.43 702.784H1168.17V704H1167.21C1166.22 704 1165.55 703.328 1165.55 702.336V692.64ZM1173.3 704.192C1170.94 704.192 1169.41 702.464 1169.41 699.76C1169.41 697.056 1170.94 695.328 1173.3 695.328C1175.65 695.328 1177.18 697.056 1177.18 699.76C1177.18 702.464 1175.65 704.192 1173.3 704.192ZM1170.85 699.76C1170.85 701.712 1171.74 702.88 1173.3 702.88C1174.85 702.88 1175.74 701.712 1175.74 699.76C1175.74 697.808 1174.85 696.64 1173.3 696.64C1171.74 696.64 1170.85 697.808 1170.85 699.76ZM1179.14 695.52H1180.36L1180.4 697.04C1180.68 696 1181.3 695.52 1182.4 695.52H1183.24V696.736H1182.4C1181.11 696.736 1180.52 697.488 1180.52 698.944V704H1179.14V695.52ZM1184.1 699.76C1184.1 697.056 1185.63 695.328 1187.98 695.328C1189.84 695.328 1191.52 696.528 1191.66 699.568L1191.68 700.192H1185.55C1185.68 701.888 1186.54 702.88 1187.98 702.88C1188.88 702.88 1189.7 702.368 1190.08 701.488L1191.55 701.6C1191.06 703.2 1189.62 704.192 1187.98 704.192C1185.63 704.192 1184.1 702.464 1184.1 699.76ZM1185.58 698.976H1190.18C1189.94 697.216 1188.99 696.64 1187.98 696.64C1186.66 696.64 1185.81 697.504 1185.58 698.976ZM1204.69 695.52L1201.61 704H1199.88L1196.79 695.52H1198.26L1200.74 702.56L1203.22 695.52H1204.69ZM1206.33 695.52H1207.7V704H1206.33V695.52ZM1206.29 694.192V692.64H1207.73V694.192H1206.29ZM1215.13 698.144C1214.94 697.2 1213.99 696.64 1213.06 696.64C1212.14 696.64 1211.38 697.104 1211.38 697.904C1211.38 698.736 1212.49 699.072 1213.38 699.248C1215.3 699.616 1216.73 700.144 1216.73 701.84C1216.73 703.488 1215.02 704.192 1213.42 704.192C1211.4 704.192 1209.86 703.088 1209.74 701.328L1211.18 701.232C1211.35 702.24 1212.15 702.88 1213.42 702.88C1214.22 702.88 1215.29 702.624 1215.29 701.76C1215.29 700.752 1214.1 700.656 1213.14 700.432C1211.61 700.08 1209.94 699.648 1209.94 697.984C1209.94 696.352 1211.26 695.328 1213.21 695.328C1214.9 695.328 1216.3 696.4 1216.57 698.048L1215.13 698.144ZM1225.26 704H1223.95V702.608C1223.5 703.696 1222.53 704.192 1221.42 704.192C1219.54 704.192 1218.61 702.768 1218.61 700.976V695.52H1219.98V700.576C1219.98 702.144 1220.5 702.976 1221.71 702.976C1223.01 702.976 1223.89 702.144 1223.89 700.576V695.52H1225.26V704ZM1227.44 698.016C1227.78 696.368 1229.11 695.328 1230.91 695.328C1233.11 695.328 1234.34 696.608 1234.34 698.88V702.272C1234.34 702.624 1234.5 702.784 1234.85 702.784H1235.2V704H1234.61C1233.75 704 1232.98 703.728 1232.98 702.704C1232.63 703.472 1231.7 704.192 1230.35 704.192C1228.67 704.192 1227.3 703.296 1227.3 701.776C1227.3 700.016 1228.61 699.584 1230.5 699.216L1232.96 698.736C1232.95 697.328 1232.27 696.64 1230.91 696.64C1229.86 696.64 1229.15 697.168 1228.9 698.128L1227.44 698.016ZM1228.74 701.776C1228.74 702.432 1229.3 702.976 1230.53 702.976C1231.91 702.976 1232.99 702.016 1232.99 700.032V699.952L1231.01 700.304C1229.76 700.528 1228.74 700.592 1228.74 701.776ZM1237.05 692.64H1238.42V702.272C1238.42 702.624 1238.58 702.784 1238.93 702.784H1239.67V704H1238.71C1237.72 704 1237.05 703.328 1237.05 702.336V692.64ZM1241.59 692.64H1242.97V702.272C1242.97 702.624 1243.13 702.784 1243.48 702.784H1244.22V704H1243.26C1242.26 704 1241.59 703.328 1241.59 702.336V692.64ZM1244.81 695.52H1246.28L1248.81 702.528L1251.25 695.52H1252.71L1249.29 705.072C1248.97 705.984 1248.36 706.4 1247.4 706.4H1246.28V705.184H1247.25C1247.65 705.184 1247.89 705.024 1248.05 704.624L1248.36 703.84H1247.89L1244.81 695.52Z" fill="#F97316"/>
<rect x="836" y="160" width="200" height="200" rx="100" fill="#F97316" fill-opacity="0.9"/>
<rect x="836.5" y="160.5" width="199" height="199" rx="99.5" stroke="#FFDECF" stroke-opacity="0.1"/>
<path d="M912.96 227.12V229.92H906.884V247H903.804V229.92H897.728V227.12H912.96ZM914.125 236.612C914.713 233.616 917.065 231.824 920.481 231.824C924.541 231.824 926.753 234.064 926.753 238.124V243.64C926.753 244.368 927.061 244.62 927.649 244.62H928.265V247H927.313C925.969 247.028 924.121 246.804 923.981 244.732C923.337 246.132 921.685 247.336 919.221 247.336C916.253 247.336 913.873 245.74 913.873 243.108C913.873 240.14 916.085 239.272 919.501 238.6L923.729 237.788C923.701 235.408 922.637 234.288 920.481 234.288C918.773 234.288 917.653 235.156 917.233 236.808L914.125 236.612ZM917.009 243.052C917.009 244.116 917.933 245.012 919.865 245.012C922.077 245.012 923.785 243.416 923.785 240.224V240.084L920.649 240.644C918.633 241.008 917.009 241.176 917.009 243.052ZM939.634 236.836C939.326 235.268 937.842 234.344 936.33 234.344C934.818 234.344 933.614 235.1 933.642 236.388C933.67 237.732 935.378 238.264 936.89 238.544C940.586 239.216 942.966 240.224 942.966 243.136C942.966 246.048 940.026 247.336 936.89 247.336C933.082 247.336 930.366 245.432 930.142 242.324L933.25 242.128C933.53 243.78 934.818 244.816 936.862 244.816C938.15 244.816 939.83 244.368 939.83 242.996C939.83 241.4 937.954 241.232 936.358 240.868C933.222 240.196 930.506 239.356 930.506 236.5C930.506 233.588 932.858 231.824 936.554 231.824C939.774 231.824 942.238 233.7 942.742 236.668L939.634 236.836ZM946.131 227.12H949.155V239.44L955.679 232.16H959.515L953.719 238.376L959.795 247H956.267L951.731 240.28L949.155 243.08V247H946.131V227.12ZM970.259 236.836C969.951 235.268 968.467 234.344 966.955 234.344C965.443 234.344 964.239 235.1 964.267 236.388C964.295 237.732 966.003 238.264 967.515 238.544C971.211 239.216 973.591 240.224 973.591 243.136C973.591 246.048 970.651 247.336 967.515 247.336C963.707 247.336 960.991 245.432 960.767 242.324L963.875 242.128C964.155 243.78 965.443 244.816 967.487 244.816C968.775 244.816 970.455 244.368 970.455 242.996C970.455 241.4 968.579 241.232 966.983 240.868C963.847 240.196 961.131 239.356 961.131 236.5C961.131 233.588 963.483 231.824 967.179 231.824C970.399 231.824 972.863 233.7 973.367 236.668L970.259 236.836Z" fill="#F5F5F5"/>
<path d="M872.736 273.368C872.56 272.28 871.648 271.64 870.64 271.64C869.088 271.64 868.192 272.808 868.192 274.76C868.192 276.712 869.088 277.88 870.64 277.88C871.696 277.88 872.608 277.192 872.8 275.992L874.256 276.088C873.984 278.008 872.432 279.192 870.64 279.192C868.288 279.192 866.752 277.464 866.752 274.76C866.752 272.056 868.288 270.328 870.64 270.328C872.368 270.328 873.952 271.448 874.176 273.272L872.736 273.368ZM875.818 273.016C876.154 271.368 877.482 270.328 879.29 270.328C881.482 270.328 882.714 271.608 882.714 273.88V277.272C882.714 277.624 882.874 277.784 883.226 277.784H883.578V279H882.986C882.122 279 881.354 278.728 881.354 277.704C881.002 278.472 880.074 279.192 878.73 279.192C877.05 279.192 875.674 278.296 875.674 276.776C875.674 275.016 876.986 274.584 878.874 274.216L881.338 273.736C881.322 272.328 880.65 271.64 879.29 271.64C878.234 271.64 877.53 272.168 877.274 273.128L875.818 273.016ZM877.114 276.776C877.114 277.432 877.674 277.976 878.906 277.976C880.282 277.976 881.37 277.016 881.37 275.032V274.952L879.386 275.304C878.138 275.528 877.114 275.592 877.114 276.776ZM885.296 281.4V270.52H886.544L886.592 271.752C887.056 270.84 887.952 270.328 889.184 270.328C891.728 270.328 892.848 272.44 892.848 274.76C892.848 277.08 891.728 279.192 889.184 279.192C888.016 279.192 887.136 278.744 886.672 277.864V281.4H885.296ZM886.512 274.76C886.512 276.328 887.216 277.88 888.944 277.88C890.688 277.88 891.376 276.344 891.376 274.76C891.376 273.176 890.688 271.64 888.944 271.64C887.216 271.64 886.512 273.192 886.512 274.76ZM895.221 268.6H896.597V270.52H898.869V271.736H896.597V276.728C896.597 277.432 896.933 277.784 897.605 277.784H898.837V279H897.605C896.069 279 895.221 278.184 895.221 276.728V271.736H893.989V270.52H895.221V268.6ZM907.405 279H906.093V277.608C905.645 278.696 904.669 279.192 903.565 279.192C901.677 279.192 900.749 277.768 900.749 275.976V270.52H902.125V275.576C902.125 277.144 902.637 277.976 903.853 277.976C905.149 277.976 906.029 277.144 906.029 275.576V270.52H907.405V279ZM909.968 270.52H911.184L911.232 272.04C911.504 271 912.128 270.52 913.232 270.52H914.064V271.736H913.232C911.936 271.736 911.344 272.488 911.344 273.944V279H909.968V270.52ZM914.924 274.76C914.924 272.056 916.46 270.328 918.812 270.328C920.668 270.328 922.348 271.528 922.492 274.568L922.508 275.192H916.38C916.508 276.888 917.372 277.88 918.812 277.88C919.708 277.88 920.524 277.368 920.908 276.488L922.38 276.6C921.884 278.2 920.444 279.192 918.812 279.192C916.46 279.192 914.924 277.464 914.924 274.76ZM916.412 273.976H921.004C920.764 272.216 919.82 271.64 918.812 271.64C917.484 271.64 916.636 272.504 916.412 273.976ZM931.89 267.384C933.442 267.528 934.722 269 934.162 270.648C933.874 271.48 933.17 272.328 932.066 273.016L934.658 276.312C935.042 275.8 935.186 274.76 935.122 273.88L936.562 274.008C936.562 275.288 936.146 276.6 935.522 277.352L936.898 279H935.234L934.658 278.296C934.034 278.872 933.042 279.192 931.938 279.192C929.538 279.192 927.906 278.072 927.906 275.992C927.906 274.648 928.482 273.848 929.906 272.856L930.114 272.712C929.378 271.736 929.074 270.824 929.074 270.024C929.074 268.344 930.45 267.256 931.89 267.384ZM929.33 275.992C929.33 277.176 930.338 277.912 931.938 277.912C932.706 277.912 933.394 277.672 933.714 277.272L930.978 273.784C930.274 274.248 929.33 274.936 929.33 275.992ZM930.466 270.072C930.466 270.568 930.69 271.192 931.25 271.96C932.274 271.496 932.914 270.76 932.914 270.072C932.914 269.336 932.498 268.808 931.81 268.76C931.042 268.712 930.45 269.336 930.466 270.072ZM945.859 279.192C943.507 279.192 941.971 277.464 941.971 274.76C941.971 272.056 943.507 270.328 945.859 270.328C948.211 270.328 949.747 272.056 949.747 274.76C949.747 277.464 948.211 279.192 945.859 279.192ZM943.411 274.76C943.411 276.712 944.307 277.88 945.859 277.88C947.411 277.88 948.307 276.712 948.307 274.76C948.307 272.808 947.411 271.64 945.859 271.64C944.307 271.64 943.411 272.808 943.411 274.76ZM951.702 270.52H952.918L952.966 272.04C953.238 271 953.862 270.52 954.966 270.52H955.798V271.736H954.966C953.67 271.736 953.078 272.488 953.078 273.944V279H951.702V270.52ZM960.402 278.552C958.21 278.552 956.658 276.856 956.658 274.44C956.658 272.024 958.194 270.328 960.386 270.328C961.538 270.328 962.498 270.904 962.882 271.832V270.52H964.194V278.168C964.194 280.408 962.658 281.592 960.434 281.592C958.626 281.592 957.282 280.616 956.882 279.128L958.322 279.032C958.674 279.816 959.394 280.28 960.434 280.28C961.922 280.28 962.818 279.656 962.818 278.488V277.096C962.402 277.992 961.474 278.552 960.402 278.552ZM958.098 274.44C958.098 276.168 959.01 277.24 960.482 277.24C961.906 277.24 962.818 276.168 962.834 274.44C962.866 272.712 961.954 271.64 960.482 271.64C959.01 271.64 958.098 272.712 958.098 274.44ZM966.365 273.016C966.701 271.368 968.029 270.328 969.837 270.328C972.029 270.328 973.261 271.608 973.261 273.88V277.272C973.261 277.624 973.421 277.784 973.773 277.784H974.125V279H973.533C972.669 279 971.901 278.728 971.901 277.704C971.549 278.472 970.621 279.192 969.277 279.192C967.597 279.192 966.221 278.296 966.221 276.776C966.221 275.016 967.533 274.584 969.421 274.216L971.885 273.736C971.869 272.328 971.197 271.64 969.837 271.64C968.781 271.64 968.077 272.168 967.821 273.128L966.365 273.016ZM967.661 276.776C967.661 277.432 968.221 277.976 969.453 277.976C970.829 277.976 971.917 277.016 971.917 275.032V274.952L969.933 275.304C968.685 275.528 967.661 275.592 967.661 276.776ZM975.843 270.52H977.091L977.139 271.976C977.571 270.84 978.562 270.328 979.731 270.328C981.667 270.328 982.595 271.752 982.595 273.544V279H981.219V273.928C981.219 272.376 980.707 271.544 979.443 271.544C978.099 271.544 977.219 272.376 977.219 273.928V279H975.843V270.52ZM985.155 270.52H986.531V279H985.155V270.52ZM985.123 269.192V267.64H986.563V269.192H985.123ZM995.573 272.04L990.213 277.784H995.701V279H988.725V277.512L994.101 271.736H988.885V270.52H995.573V272.04ZM997.127 274.76C997.127 272.056 998.663 270.328 1001.02 270.328C1002.87 270.328 1004.55 271.528 1004.7 274.568L1004.71 275.192H998.583C998.711 276.888 999.575 277.88 1001.02 277.88C1001.91 277.88 1002.73 277.368 1003.11 276.488L1004.58 276.6C1004.09 278.2 1002.65 279.192 1001.02 279.192C998.663 279.192 997.127 277.464 997.127 274.76ZM998.615 273.976H1003.21C1002.97 272.216 1002.02 271.64 1001.02 271.64C999.687 271.64 998.839 272.504 998.615 273.976Z" fill="#F5F5F5"/>
<path d="M868.964 366.734C868.817 366.201 868.266 365.889 867.734 366.036L859.059 368.433C858.526 368.581 858.214 369.131 858.361 369.664C858.508 370.196 859.059 370.508 859.592 370.361L867.302 368.23L869.433 375.941C869.581 376.474 870.131 376.786 870.664 376.639C871.196 376.492 871.508 375.941 871.361 375.408L868.964 366.734ZM740.036 591.266C740.183 591.799 740.734 592.111 741.266 591.964L749.941 589.567C750.474 589.419 750.786 588.869 750.639 588.336C750.492 587.804 749.941 587.492 749.408 587.639L741.698 589.77L739.567 582.059C739.419 581.526 738.869 581.214 738.336 581.361C737.804 581.508 737.492 582.059 737.639 582.592L740.036 591.266ZM868 367L867.13 366.507L740.13 590.507L741 591L741.87 591.493L868.87 367.493L868 367Z" fill="#CFCFCF"/>
<path d="M1068.71 686.207C1069.1 685.817 1069.1 685.183 1068.71 684.793L1062.34 678.429C1061.95 678.038 1061.32 678.038 1060.93 678.429C1060.54 678.819 1060.54 679.453 1060.93 679.843L1066.59 685.5L1060.93 691.157C1060.54 691.547 1060.54 692.181 1060.93 692.571C1061.32 692.962 1061.95 692.962 1062.34 692.571L1068.71 686.207ZM803.292 684.793C802.901 685.183 802.901 685.817 803.292 686.207L809.656 692.571C810.046 692.962 810.68 692.962 811.07 692.571C811.461 692.181 811.461 691.547 811.07 691.157L805.413 685.5L811.07 679.843C811.461 679.453 811.461 678.819 811.07 678.429C810.68 678.038 810.046 678.038 809.656 678.429L803.292 684.793ZM1068 685.5L1068 684.5L803.999 684.5L803.999 685.5L803.999 686.5L1068 686.5L1068 685.5Z" fill="#CFCFCF"/>
<path d="M1004.27 366.036C1003.73 365.889 1003.18 366.201 1003.04 366.733L1000.64 375.407C1000.49 375.939 1000.8 376.49 1001.33 376.638C1001.86 376.785 1002.42 376.473 1002.56 375.941L1004.7 368.231L1012.41 370.365C1012.94 370.512 1013.49 370.2 1013.64 369.668C1013.78 369.136 1013.47 368.585 1012.94 368.437L1004.27 366.036ZM1131.73 593.964C1132.27 594.111 1132.82 593.799 1132.96 593.267L1135.36 584.593C1135.51 584.061 1135.2 583.51 1134.67 583.362C1134.14 583.215 1133.58 583.527 1133.44 584.059L1131.3 591.769L1123.59 589.635C1123.06 589.488 1122.51 589.8 1122.36 590.332C1122.22 590.864 1122.53 591.415 1123.06 591.563L1131.73 593.964ZM1004 367L1003.13 367.493L1131.13 593.493L1132 593L1132.87 592.507L1004.87 366.507L1004 367Z" fill="#CFCFCF"/>
</svg>
