<svg width="24" height="24" viewBox="0 0 24 24" fill="none" xmlns="http://www.w3.org/2000/svg">
<g clip-path="url(#clip0_2062_248)">
<path d="M13.5461 12.7463C13.8228 13.5204 14.5236 14.4036 15.6461 15.7306C14.3398 14.5786 13.4728 13.8623 12.7127 13.5835C12.6685 13.7675 12.6447 13.9904 12.6393 14.2547C12.558 17.498 12.2796 20.7358 11.8961 23.9989C11.8342 23.5189 11.7414 23.0408 11.7158 22.559C11.5744 19.7741 11.402 16.9909 11.3401 14.2033C11.334 13.9642 11.3127 13.7612 11.2703 13.5889C10.5138 13.8731 9.65029 14.5867 8.35373 15.7297C9.47264 14.4063 10.1726 13.5231 10.451 12.7508C10.2345 12.6913 9.9773 12.666 9.67503 12.6579C6.45088 12.5632 3.2329 12.3223 -0.000976562 11.929C2.79718 11.7612 5.59357 11.5888 8.39173 11.4228C8.61799 11.4093 8.8469 11.421 9.07492 11.4192C9.71127 11.4111 10.1602 11.4057 10.4802 11.3444C10.223 10.5523 9.51241 9.65553 8.35373 8.28426C9.6388 9.41826 10.4996 10.1292 11.2526 10.4197C11.2995 10.1391 11.3225 9.77552 11.3516 9.3091C11.4948 6.98967 11.5664 4.66752 11.6822 2.34628C11.7211 1.56772 11.8006 0.791868 11.8598 0.0133091C11.9376 0.00699401 12.0127 0.00338539 12.0905 -0.00292969C12.2805 3.28632 12.543 6.57287 12.6243 9.86573C12.6305 10.0868 12.6535 10.2762 12.6941 10.4386C13.4586 10.1616 14.3292 9.44262 15.6452 8.28335C14.5015 9.63478 13.7971 10.5252 13.5302 11.3092C13.7662 11.3759 14.0411 11.4003 14.3451 11.4138C17.5649 11.5618 20.7837 11.7296 23.9999 12.1265C20.7413 12.316 17.4844 12.5551 14.2231 12.6678C13.9598 12.6777 13.7353 12.6994 13.5461 12.7427V12.7463Z" fill="white"/>
</g>
<defs>
<clipPath id="clip0_2062_248">
<rect width="24" height="24" fill="white"/>
</clipPath>
</defs>
</svg>
