<svg width="24" height="24" viewBox="0 0 24 24" fill="none" xmlns="http://www.w3.org/2000/svg">
<g clip-path="url(#clip0_2062_234)">
<path d="M8.06192 10.998C7.54286 8.06005 4.85414 4.9292 0 0C4.77983 4.74585 7.8613 7.43004 10.7188 8.05152C10.913 8.84783 10.7613 9.63454 10.2125 10.2432C9.65626 10.8604 8.87077 11.1163 8.06404 10.999H8.06192V10.998Z" fill="white"/>
<path d="M10.0773 13.6601C10.6739 14.1974 10.918 15.1547 10.7641 16.0427C7.91297 16.6396 4.84743 19.294 0.101562 24.0014C4.89095 19.133 7.54252 16.0277 8.06264 13.1101C8.78975 12.9875 9.51474 13.1559 10.0773 13.6612V13.6601Z" fill="white"/>
<path d="M15.9412 13.1373C16.472 16.0454 19.1246 19.1464 23.897 23.9999C18.9633 19.107 15.8478 16.4345 12.9001 15.9804C12.7239 15.1137 13.02 14.2748 13.7567 13.6416C14.3893 13.0968 15.1706 12.9359 15.9412 13.1384V13.1373Z" fill="white"/>
<path d="M13.5784 10.3498C12.9659 9.74647 12.7515 8.92991 12.9341 8.11762C15.8935 7.64538 19.0269 4.93879 23.9989 0C19.1713 4.90255 16.4858 8.02594 15.9433 10.9479C15.092 11.1632 14.2015 10.9638 13.5784 10.3488V10.3498Z" fill="white"/>
</g>
<defs>
<clipPath id="clip0_2062_234">
<rect width="24" height="24" fill="white"/>
</clipPath>
</defs>
</svg>
