<svg width="24" height="24" viewBox="0 0 24 24" fill="none" xmlns="http://www.w3.org/2000/svg">
<g clip-path="url(#clip0_2064_346)">
<path d="M9.04686 11.3312C8.65754 9.37271 6.64085 7.28554 3 3.99951C6.58512 7.16331 8.89639 8.95272 11.0397 9.36702C11.1854 9.89787 11.0715 10.4223 10.6599 10.8281C10.2427 11.2396 9.65354 11.4101 9.04845 11.332H9.04686V11.3312Z" fill="black"/>
<path d="M10.558 13.1061C11.0055 13.4643 11.1886 14.1024 11.0731 14.6944C8.93465 15.0924 6.63533 16.8619 3.07568 20.0001C6.66797 16.7546 8.65679 14.6844 9.04691 12.7394C9.59228 12.6577 10.1361 12.77 10.558 13.1068V13.1061Z" fill="black"/>
<path d="M14.9568 12.7576C15.3549 14.6962 17.3445 16.7635 20.9241 19.9991C17.2235 16.7372 14.8867 14.9556 12.6758 14.6529C12.5436 14.0751 12.7658 13.5158 13.3183 13.0937C13.7928 12.7306 14.3788 12.6233 14.9568 12.7583V12.7576Z" fill="black"/>
<path d="M13.1843 10.8992C12.7249 10.4969 12.5641 9.95259 12.701 9.41108C14.9207 9.09627 17.271 7.29194 21.0002 3.99951C17.3793 7.26777 15.365 9.34997 14.9582 11.2978C14.3196 11.4414 13.6517 11.3085 13.1843 10.8985V10.8992Z" fill="black"/>
</g>
<defs>
<clipPath id="clip0_2064_346">
<rect width="20" height="16" fill="white" transform="translate(2 4)"/>
</clipPath>
</defs>
</svg>
