<svg width="24" height="24" viewBox="0 0 24 24" fill="none" xmlns="http://www.w3.org/2000/svg">
<g clip-path="url(#clip0_2062_229)">
<path d="M23.9184 15.2089C23.3376 12.3629 21.0272 11.2379 17.9109 12.3073C17.5371 12.4301 17.1671 12.5672 16.7855 12.6771C15.5631 13.0249 14.3355 12.4521 13.9694 11.3711C13.5981 10.2772 14.1957 9.16263 15.4324 8.67904C16.2745 8.35061 17.1594 8.11139 17.9679 7.71702C19.6495 6.90111 20.4619 4.94605 19.9535 3.11899C19.3766 1.0372 17.7893 -0.112302 15.6627 0.0092428C13.7857 0.116565 12.0665 1.52339 12.0005 3.36208C11.9527 4.61374 12.3614 5.89125 12.6538 7.13645C12.9617 8.43853 12.5296 9.60614 11.4766 10.0134C10.3745 10.4363 9.17143 9.84406 8.64235 8.56654C8.32801 7.80365 8.13915 6.98775 7.80669 6.23262C7.03571 4.48831 5.09533 3.55216 3.21186 3.96075C1.34909 4.36289 -0.0260011 6.14081 -0.000129223 8.11139C0.024449 10.0199 1.41247 11.8547 3.30888 11.9724C4.62834 12.0526 5.99696 11.6155 7.31772 11.3117C8.50912 11.0375 9.67723 11.4888 10.0821 12.5219C10.4534 13.4723 9.86221 14.8378 8.82475 15.2839C8.17537 15.567 7.48588 15.7571 6.80675 15.9692C4.61282 16.6583 3.45764 18.8061 4.10702 21.0042C4.76546 23.2412 6.96586 24.4605 9.2193 23.8373C11.289 23.2645 12.5594 21.0521 12.0186 18.9134C11.8233 18.1492 11.5051 17.4161 11.3317 16.6493C11.0187 15.2696 11.6383 14.2055 12.8621 13.9055C13.9952 13.6236 15.0469 14.2986 15.4673 15.5735C15.7028 16.2834 15.8813 17.0191 16.1814 17.7018C17.0287 19.6427 19.2097 20.5659 21.2161 19.8754C23.1733 19.2043 24.3272 17.2079 23.9184 15.2089ZM21.013 19.2884C20.1126 19.5987 19.1567 19.5379 18.321 19.1164C17.6121 18.7595 17.0688 18.1854 16.7519 17.4549C16.563 17.023 16.4246 16.5665 16.2784 16.0829C16.2073 15.8463 16.1374 15.611 16.0585 15.3795C15.7739 14.5171 15.2306 13.8486 14.5282 13.4956C13.9681 13.2137 13.3381 13.1478 12.712 13.3016C11.139 13.687 10.3395 15.0899 10.7225 16.7902C10.8234 17.2312 10.9644 17.6527 11.1041 18.0626C11.2192 18.4104 11.3279 18.735 11.4132 19.0686C11.8712 20.8814 10.8117 22.7511 9.05242 23.2386C8.16761 23.4843 7.25563 23.4028 6.48206 23.0136C5.62182 22.5804 4.98796 21.8046 4.70078 20.831C4.14713 18.9509 5.10956 17.1575 6.99303 16.5653C7.12497 16.5239 7.26209 16.4799 7.39663 16.4398C7.9464 16.2717 8.51688 16.0959 9.06924 15.858C10.4081 15.2813 11.1649 13.5848 10.6604 12.2969C10.4288 11.7009 9.99416 11.2289 9.40816 10.9341C8.75749 10.6057 7.96451 10.5255 7.17801 10.7052C6.918 10.7673 6.65799 10.8306 6.39409 10.8953C5.37216 11.1487 4.31659 11.4125 3.34898 11.353C3.01135 11.331 2.68666 11.2418 2.37879 11.088C1.34521 10.5682 0.637611 9.36693 0.622088 8.10363C0.598804 6.42916 1.7695 4.90984 3.34122 4.57107C4.1329 4.39909 4.96338 4.50512 5.68003 4.86588C6.37598 5.21629 6.92705 5.79169 7.23493 6.48734C7.40051 6.86103 7.52857 7.25411 7.6644 7.67047C7.78341 8.04286 7.90889 8.42819 8.06671 8.80575C8.37846 9.5583 8.91013 10.157 9.56469 10.488C10.2192 10.819 10.9993 10.8643 11.6978 10.5953C13.0186 10.0859 13.6473 8.63895 13.2579 6.9968C13.201 6.75629 13.1415 6.5145 13.0794 6.2727C12.8362 5.3068 12.5852 4.31117 12.6189 3.38665C12.6732 1.96302 14.0534 0.72817 15.6976 0.633778C16.4104 0.591108 17.052 0.71136 17.6031 0.989363C18.4504 1.41606 19.0532 2.20999 19.352 3.2845C19.7854 4.85036 19.0894 6.48088 17.6936 7.15584C17.2137 7.38988 16.7027 7.56832 16.1607 7.75452C15.8464 7.86313 15.523 7.97433 15.2035 8.09976C13.6667 8.69972 12.8983 10.1583 13.3782 11.5728C13.5994 12.2271 14.0741 12.7637 14.7119 13.0857C15.3897 13.4271 16.1853 13.4956 16.9563 13.2771C17.2331 13.1995 17.4996 13.1051 17.7596 13.0159C17.876 12.9797 17.9898 12.9396 18.105 12.8995C19.5033 12.4198 20.7193 12.4107 21.6326 12.8711C22.4864 13.3003 23.0659 14.1524 23.3052 15.3343C23.6506 17.0204 22.6636 18.7207 21.0104 19.2897L21.013 19.2884Z" fill="white"/>
<path d="M21.0128 19.287C20.1125 19.5973 19.1565 19.5366 18.3208 19.115C17.612 18.7582 17.0686 18.1841 16.7517 17.4535C16.5628 17.0216 16.4244 16.5652 16.2783 16.0816C16.2071 15.845 16.1373 15.6096 16.0583 15.3782C15.7738 14.5157 15.2304 13.8472 14.528 13.4942C13.9679 13.2123 13.3379 13.1464 12.7118 13.3003C11.1388 13.6856 10.3394 15.0885 10.7223 16.7889C10.8232 17.2298 10.9642 17.6513 11.1039 18.0612C11.219 18.409 11.3277 18.7336 11.4131 19.0672C11.871 20.88 10.8115 22.7498 9.05226 23.2372C8.16744 23.4829 7.25546 23.4014 6.48189 23.0122C5.62165 22.5791 4.98779 21.8033 4.70062 20.8296C4.14696 18.9495 5.10939 17.1561 6.99286 16.5639C7.12481 16.5225 7.26193 16.4785 7.39646 16.4385C7.94624 16.2704 8.51671 16.0945 9.06907 15.8566C10.4079 15.2799 11.1647 13.5834 10.6602 12.2956C10.4286 11.6995 9.99399 11.2275 9.408 10.9327C8.75732 10.6043 7.96435 10.5241 7.17784 10.7039C6.91783 10.7659 6.65782 10.8293 6.39393 10.8939C5.37199 11.1474 4.31642 11.4111 3.34881 11.3517C3.01119 11.3297 2.68649 11.2405 2.37862 11.0866C1.34504 10.5668 0.637446 9.36557 0.621923 8.10227C0.598639 6.42779 1.76934 4.90848 3.34105 4.5697C4.13273 4.39773 4.96322 4.50376 5.67987 4.86452C6.37582 5.21493 6.92689 5.79033 7.23476 6.48598C7.40034 6.85967 7.52841 7.25275 7.66423 7.66911C7.78324 8.0415 7.90872 8.42682 8.06654 8.80439C8.3783 9.55693 8.90996 10.1556 9.56452 10.4866C10.2191 10.8176 10.9991 10.8629 11.6977 10.5939C13.0184 10.0845 13.6471 8.63759 13.2577 6.99544C13.2008 6.75493 13.1413 6.51313 13.0792 6.27134C12.836 5.30544 12.5851 4.3098 12.6187 3.38529C12.673 1.96166 14.0533 0.726808 15.6974 0.632417C16.4102 0.589747 17.0518 0.709999 17.6029 0.988001C18.4502 1.4147 19.053 2.20862 19.3518 3.28314C19.7852 4.849 19.0892 6.47952 17.6934 7.15448C17.2135 7.38852 16.7026 7.56696 16.1605 7.75315C15.8462 7.86177 15.5228 7.97297 15.2033 8.09839C13.6665 8.69836 12.8981 10.1569 13.378 11.5715C13.5992 12.2258 14.074 12.7624 14.7117 13.0843C15.3896 13.4257 16.1851 13.4942 16.9561 13.2757C17.2329 13.1981 17.4994 13.1037 17.7594 13.0145C17.8758 12.9783 17.9897 12.9382 18.1048 12.8981C19.5032 12.4184 20.7192 12.4094 21.6324 12.8697C22.4862 13.299 23.0657 14.1511 23.305 15.3329C23.6504 17.019 22.6634 18.7194 21.0102 19.2883L21.0128 19.287Z" fill="white"/>
</g>
<defs>
<clipPath id="clip0_2062_229">
<rect width="24" height="24" fill="white"/>
</clipPath>
</defs>
</svg>
